<svg id="f29e2a11-4694-45ba-ac49-336223f680f1" data-name="Layer 1" xmlns="http://www.w3.org/2000/svg" viewBox="0 0 1452.87 1623.45"><title>login_background</title><path d="M1298.16,1786.64l28.35-13.34,5-35,23.34-23.34-8.34,26.67,8.34,30-26.68,21.67,6.67,17.5,34-.21,1.06-18.95,1.66-26.68,16.68,25v20.5l320-2-9.84-26.84,25-11.67-11.68-30,20-33.34-6.67,31.68,16.68,30s-18.34,11.67-15,16.68c1.76,2.63,5.35,13.55,8.37,23.33l28.7-.18-7.06-18.15,21.68-10,6.67-33.35,10,33.35-13.34,11.68,8.16,16.31,29-.18,12.83-22.8-15-43.36v-48.35l13.34,46.68,26.67,35L1841,1807.64l433.2-2.71-12.3-28.29h-28.34l8.33-23.35-43.35-16.67,65,8.34-6.67,13.34,33.35,13.34,6.85,33.15,89.48-.56s-96.2-45.4-134.3-107.54C2217,1639.17,2212,1521.62,2212,1521.62V928l-31.81,8.25L2161.85,918l-28.34,8.34h-53.36l50-13.34,35-18.34,25,15,21.8-8.72V843.24l-26.81-3.65-33.34,5-43.35-8.34,43.35-13.34,38.35-1.67,21.8-12.88-7.37-617.55s-217.71,20.34-470.3,22.84c-155.37,1.54-427.55-25.34-427.55-25.34l-.11,1260,33.18,16.58,36.68-20,25,41.69-20-16.68-38.35,25s-20.78-5-36.51-8.94v35.71h-1.42s-6,119.87-36.09,177.57c-39.1,75-80,112.54-80,112.54L1300,1811Z" transform="translate(-1029.31 -188.27)" style="fill:#f2ba70"/><path d="M1305.61,430.66l900.32,2.5s-10.43-5.22-11.82-8.47c-5.06-11.89-9.59-22.19-9.59-22.19l-857-5.49a107.08,107.08,0,0,1-8.46,18.42A53.63,53.63,0,0,1,1305.61,430.66Z" transform="translate(-1029.31 -188.27)" style="fill:#d8a466"/><path d="M1328.1,229s318.11,24.24,428.21,24.24c128.76,0,428.21-28.68,428.21-28.68.86,11-4.46,46.34-4.92,57.36,0,0-354.55-10-454.6-6.26s-393.08,4.44-393.08,4.44C1329.94,277.27,1328.1,230.85,1328.1,229Z" transform="translate(-1029.31 -188.27)" style="fill:#fff;opacity:0.30000000000000004"/><path d="M1331.51,269.35c-2.13-51.59-9-70.48-16.53-77.32-5.39-4.91-12.54-5.15-18.15.12-7.37,6.93-15.17,25.87-17.53,77.08-5.39,117.37,6.84,148.63,16.53,157.46,5.34,4.86,14.79,6,20.84-.77C1326,415.46,1336.13,381.36,1331.51,269.35Z" transform="translate(-1029.31 -188.27)" style="fill:#b28e69"/><path d="M1305.64,326.55h-40.1V281.91h40.1s8.22-.47,7.39,22.32C1312.16,328.12,1305.64,326.55,1305.64,326.55Z" transform="translate(-1029.31 -188.27)" style="fill:#4c3722"/><path d="M1109.67,214c-.75,0-1.49,0-2.24,0-43.14,0-78.12,40.42-78.12,90.28s35,90.28,78.12,90.28c.75,0,1.49,0,2.24,0Z" transform="translate(-1029.31 -188.27)" style="fill:#4c3722"/><path d="M1174.65,265.54c-32.25-7.07-65-39.06-65-39.06V382s32.73-32,65-39.06,107.63-7.66,107.63-7.66V273.2S1206.89,272.61,1174.65,265.54Z" transform="translate(-1029.31 -188.27)" style="fill:#4c3722"/><rect x="218.25" y="73.05" width="23.31" height="85.81" rx="8.93" style="fill:#4c3722"/><path d="M1104.46,229.37s-32.24,2.48-48.12,27.78c-12.88,20.54-23.81,59.27-1.49,92.76a47.58,47.58,0,0,0,22.33,17.6s-18.36-33.23-13.4-61.5,15.63-35,25.55-38.44,14.88-3.72,14.88-3.72Z" transform="translate(-1029.31 -188.27)" style="fill:#5e5030;opacity:0.6000000000000001"/><path d="M1260,336a4.21,4.21,0,0,1-4.21,4.21h0a4.21,4.21,0,0,1-4.22-4.21v-68a4.21,4.21,0,0,1,4.22-4.21h0a4.21,4.21,0,0,1,4.21,4.21Z" transform="translate(-1029.31 -188.27)" style="fill:#5e5030"/><path d="M1109.67,226.48V382s3-5,11.16-10.25,19.34-14.14,19.34-14.14-9.67-11.16-14.88-41.66-11.16-84.82-11.16-84.82Z" transform="translate(-1029.31 -188.27)" style="fill:#352619"/><polygon points="242.19 84.87 241.44 146.63 252.97 146.99 244.42 84.87 242.19 84.87" style="fill:#352619"/><path d="M1289.82,243.92l2,9.31s4.86-43.63,12-41.13,17.09,40.44,17.51,84.21-1.81,115-12.23,114.21-13.06-23.9-13.06-23.9l-3.61-4.72s2.78,43.9,20.56,35.57c13.68-6.41,13.2-89.76,14-118.52s-9.17-96-22.92-93.51S1289.82,243.92,1289.82,243.92Z" transform="translate(-1029.31 -188.27)" style="fill:#5e5030;opacity:0.6000000000000001"/><path d="M2180,271.86c2.23-54,9.68-72.18,17.58-78.2,5.86-4.46,12.9-3.76,18.23,2.16,7,7.78,14.16,27.32,16.4,75.92,5,109.46-5.27,144-14.55,155.35-6.57,8-18.61,9-25.49-2.32C2183.68,410.81,2175.79,373.26,2180,271.86Z" transform="translate(-1029.31 -188.27)" style="fill:#b28e69"/><path d="M2205.85,329.06h40.09V284.42h-40.09s-8.22-.47-7.39,22.31C2199.33,330.62,2205.85,329.06,2205.85,329.06Z" transform="translate(-1029.31 -188.27)" style="fill:#4c3722"/><path d="M2401.82,216.5c.74,0,1.49,0,2.23,0,43.15,0,78.13,40.42,78.13,90.28s-35,90.27-78.13,90.27c-.74,0-1.49,0-2.23,0Z" transform="translate(-1029.31 -188.27)" style="fill:#4c3722"/><path d="M2336.84,268.05c32.25-7.07,65-39.06,65-39.06v155.5s-32.73-32-65-39.06-107.63-7.67-107.63-7.67V275.71S2304.6,275.12,2336.84,268.05Z" transform="translate(-1029.31 -188.27)" style="fill:#4c3722"/><rect x="1211.3" y="75.56" width="23.31" height="85.81" rx="8.93" style="fill:#4c3722"/><path d="M2407,231.88s32.24,2.48,48.12,27.78c12.88,20.53,23.8,59.27,1.48,92.75A47.56,47.56,0,0,1,2434.31,370s18.35-33.23,13.39-61.5-15.62-35-25.54-38.45-14.88-3.72-14.88-3.72Z" transform="translate(-1029.31 -188.27)" style="fill:#5e5030;opacity:0.6000000000000001"/><path d="M2251.53,338.52a4.21,4.21,0,0,0,4.21,4.22h0a4.22,4.22,0,0,0,4.22-4.22V270.57a4.22,4.22,0,0,0-4.22-4.22h0a4.21,4.21,0,0,0-4.21,4.22Z" transform="translate(-1029.31 -188.27)" style="fill:#5e5030"/><path d="M2401.82,229v155.5s-3-5-11.16-10.25-19.34-14.14-19.34-14.14,9.67-11.16,14.88-41.66,11.16-84.82,11.16-84.82Z" transform="translate(-1029.31 -188.27)" style="fill:#352619"/><polygon points="1210.68 87.38 1211.43 149.13 1199.9 149.49 1208.45 87.38 1210.68 87.38" style="fill:#352619"/><path d="M2221.66,246.43l-1.94,9.31s-4.86-43.63-11.95-41.13-17.09,40.43-17.51,84.2,1.81,115.05,12.23,114.22,13.06-23.9,13.06-23.9l3.61-4.73s-2.78,43.91-20.56,35.57c-13.68-6.41-13.2-89.76-14-118.52s9.17-96,22.93-93.51S2221.66,246.43,2221.66,246.43Z" transform="translate(-1029.31 -188.27)" style="fill:#5e5030;opacity:0.6000000000000001"/></svg>